<svg width="231" height="209" viewBox="0 0 231 209" fill="none" xmlns="http://www.w3.org/2000/svg">
<g filter="url(#filter0_d_446_4)">
<rect x="3.50586" width="223" height="200.864" rx="3.80769" transform="rotate(1 3.50586 0)" fill="white"/>
<rect x="5.00212" y="1.54943" width="219.954" height="197.818" rx="2.28461" transform="rotate(1 5.00212 1.54943)" stroke="black" stroke-width="3.04615"/>
</g>
<g filter="url(#filter1_d_446_4)">
<rect x="17.8711" y="124.688" width="193.431" height="44.9307" rx="3.50491" transform="rotate(1 17.8711 124.688)" fill="#FF93F4"/>
<rect x="18.6192" y="125.462" width="191.908" height="43.4077" rx="2.74337" transform="rotate(1 18.6192 125.462)" stroke="black" stroke-width="1.52308"/>
</g>
<path d="M47.15 155.207L45.4901 155.178L45.7393 140.903L53.6873 141.042L53.6617 142.506L47.3736 142.397L47.2823 147.63L53.1896 147.733L53.1642 149.188L47.2569 149.085L47.15 155.207ZM64.8973 150.145C64.882 151.024 64.7544 151.806 64.5145 152.492C64.2746 153.178 63.9357 153.755 63.4978 154.223C63.0599 154.691 62.5328 155.046 61.9165 155.289C61.3068 155.526 60.6179 155.638 59.8498 155.624C59.1337 155.612 58.4784 155.477 57.8839 155.219C57.296 154.955 56.7881 154.581 56.3602 154.098C55.9389 153.616 55.6138 153.027 55.385 152.333C55.1627 151.639 55.0593 150.852 55.0746 149.974C55.0951 148.802 55.311 147.809 55.7224 146.996C56.1339 146.176 56.7112 145.558 57.4542 145.141C58.2039 144.718 59.0897 144.516 60.1117 144.533C61.0881 144.55 61.9371 144.783 62.6585 145.232C63.3865 145.681 63.945 146.323 64.3342 147.156C64.7299 147.984 64.9177 148.98 64.8973 150.145ZM56.754 150.003C56.739 150.862 56.8399 151.61 57.0567 152.245C57.2736 152.88 57.6165 153.375 58.0857 153.728C58.5549 154.081 59.1638 154.264 59.9123 154.277C60.6544 154.29 61.2661 154.129 61.7473 153.792C62.235 153.455 62.5983 152.973 62.8371 152.346C63.076 151.718 63.2029 150.975 63.2179 150.116C63.2328 149.263 63.1317 148.525 62.9147 147.903C62.6977 147.274 62.3546 146.786 61.8854 146.44C61.4161 146.093 60.8039 145.913 60.0488 145.9C58.9357 145.88 58.1123 146.234 57.5787 146.96C57.0517 147.687 56.7768 148.701 56.754 150.003ZM69.2365 155.593L67.6059 155.564L67.8711 140.371L69.5017 140.4L69.2365 155.593ZM74.2943 155.681L72.6637 155.653L72.9289 140.46L74.5595 140.488L74.2943 155.681ZM87.0424 150.532C87.027 151.41 86.8994 152.193 86.6596 152.879C86.4197 153.565 86.0808 154.142 85.6429 154.609C85.205 155.077 84.6779 155.433 84.0615 155.676C83.4518 155.912 82.7629 156.024 81.9948 156.011C81.2788 155.998 80.6235 155.863 80.0289 155.605C79.441 155.341 78.9331 154.968 78.5053 154.485C78.084 154.002 77.7589 153.414 77.5301 152.719C77.3078 152.025 77.2043 151.239 77.2197 150.36C77.2401 149.188 77.456 148.196 77.8674 147.383C78.2789 146.563 78.8562 145.945 79.5993 145.528C80.349 145.105 81.2348 144.902 82.2568 144.92C83.2332 144.937 84.0821 145.17 84.8036 145.619C85.5315 146.068 86.0901 146.709 86.4792 147.543C86.875 148.37 87.0627 149.366 87.0424 150.532ZM78.8991 150.389C78.8841 151.249 78.985 151.996 79.2018 152.631C79.4186 153.267 79.7616 153.761 80.2308 154.114C80.6999 154.468 81.3088 154.651 82.0574 154.664C82.7995 154.677 83.4111 154.515 83.8923 154.178C84.38 153.842 84.7433 153.36 84.9822 152.732C85.221 152.105 85.348 151.362 85.363 150.502C85.3778 149.65 85.2768 148.912 85.0597 148.29C84.8428 147.661 84.4997 147.173 84.0304 146.826C83.5611 146.479 82.949 146.299 82.1939 146.286C81.0808 146.267 80.2574 146.62 79.7238 147.347C79.1967 148.073 78.9218 149.088 78.8991 150.389ZM98.4609 156.083L96.6656 149.821C96.5857 149.552 96.5089 149.29 96.4352 149.035C96.3681 148.774 96.3041 148.525 96.2431 148.29C96.1887 148.048 96.1372 147.825 96.0887 147.623C96.0467 147.414 96.0108 147.234 95.9809 147.084L95.9125 147.082C95.8839 147.232 95.845 147.41 95.7958 147.618C95.7467 147.819 95.6875 148.039 95.6182 148.279C95.5554 148.518 95.4859 148.771 95.4096 149.037C95.3334 149.296 95.2475 149.558 95.1517 149.823L93.0516 155.989L91.2257 155.957L88.4637 145.204L90.1431 145.233L91.5828 151.168C91.6801 151.56 91.771 151.949 91.8554 152.335C91.9465 152.714 92.0216 153.073 92.0808 153.413C92.1466 153.746 92.1936 154.037 92.2218 154.285L92.2999 154.286C92.3418 154.124 92.3875 153.929 92.4371 153.702C92.4931 153.476 92.5527 153.236 92.6157 152.983C92.6853 152.724 92.7582 152.468 92.8342 152.215C92.9104 151.956 92.9862 151.713 93.0618 151.486L95.1424 145.321L96.8902 145.351L98.6861 151.575C98.7783 151.889 98.867 152.216 98.9522 152.556C99.044 152.896 99.1261 153.227 99.1986 153.547C99.2713 153.861 99.3217 154.142 99.35 154.39L99.4281 154.391C99.458 154.17 99.5116 153.898 99.5889 153.573C99.6662 153.249 99.7538 152.893 99.8517 152.504C99.9562 152.115 100.064 151.719 100.175 151.318L101.841 145.438L103.491 145.466L100.345 156.116L98.4609 156.083ZM119.772 151.103C119.756 151.982 119.629 152.764 119.389 153.45C119.149 154.136 118.81 154.713 118.372 155.181C117.934 155.648 117.407 156.004 116.791 156.247C116.181 156.484 115.492 156.595 114.724 156.582C114.008 156.57 113.353 156.434 112.758 156.177C112.17 155.912 111.663 155.539 111.235 155.056C110.813 154.573 110.488 153.985 110.259 153.291C110.037 152.597 109.934 151.81 109.949 150.931C109.97 149.76 110.185 148.767 110.597 147.954C111.008 147.134 111.586 146.516 112.329 146.099C113.078 145.676 113.964 145.473 114.986 145.491C115.963 145.508 116.812 145.741 117.533 146.19C118.261 146.639 118.819 147.28 119.209 148.114C119.604 148.941 119.792 149.938 119.772 151.103ZM111.628 150.961C111.613 151.82 111.714 152.567 111.931 153.203C112.148 153.838 112.491 154.332 112.96 154.686C113.429 155.039 114.038 155.222 114.787 155.235C115.529 155.248 116.141 155.086 116.622 154.75C117.109 154.413 117.473 153.931 117.712 153.304C117.95 152.676 118.077 151.933 118.092 151.074C118.107 150.221 118.006 149.483 117.789 148.861C117.572 148.232 117.229 147.744 116.76 147.397C116.291 147.051 115.678 146.871 114.923 146.858C113.81 146.838 112.987 147.192 112.453 147.918C111.926 148.645 111.651 149.659 111.628 150.961ZM127.738 145.714C129.007 145.736 129.962 146.065 130.602 146.701C131.242 147.331 131.55 148.333 131.526 149.706L131.405 156.678L129.803 156.65L129.923 149.786C129.939 148.894 129.745 148.223 129.343 147.773C128.947 147.324 128.329 147.092 127.49 147.077C126.305 147.056 125.466 147.377 124.973 148.039C124.479 148.701 124.221 149.67 124.199 150.946L124.101 156.55L122.48 156.522L122.667 145.821L123.976 145.843L124.193 147.39L124.281 147.392C124.515 147.018 124.81 146.708 125.166 146.46C125.522 146.206 125.919 146.017 126.358 145.895C126.796 145.766 127.256 145.705 127.738 145.714ZM142.843 161.683C141.437 161.658 140.357 161.376 139.605 160.835C138.852 160.301 138.484 159.562 138.501 158.618C138.513 157.948 138.734 157.379 139.166 156.911C139.603 156.443 140.201 156.138 140.959 155.995C140.682 155.86 140.444 155.66 140.247 155.396C140.056 155.133 139.964 154.832 139.97 154.493C139.976 154.102 140.09 153.763 140.31 153.473C140.536 153.178 140.876 152.897 141.33 152.632C140.775 152.394 140.326 152.002 139.984 151.456C139.648 150.903 139.487 150.265 139.499 149.543C139.513 148.775 139.684 148.123 140.012 147.588C140.34 147.047 140.81 146.639 141.42 146.363C142.031 146.087 142.765 145.957 143.625 145.972C143.814 145.975 144.002 145.988 144.191 146.011C144.386 146.027 144.571 146.053 144.746 146.089C144.921 146.118 145.074 146.153 145.203 146.194L148.874 146.259L148.856 147.303L146.88 147.513C147.07 147.77 147.228 148.079 147.352 148.439C147.476 148.8 147.534 149.198 147.526 149.634C147.508 150.702 147.132 151.545 146.398 152.163C145.664 152.776 144.666 153.071 143.404 153.049C143.104 153.044 142.799 153.012 142.487 152.955C142.165 153.125 141.918 153.316 141.745 153.528C141.578 153.74 141.492 153.986 141.487 154.266C141.484 154.474 141.543 154.641 141.664 154.767C141.792 154.893 141.976 154.987 142.216 155.05C142.456 155.106 142.745 155.137 143.084 155.143L144.968 155.176C146.133 155.196 147.021 155.456 147.631 155.955C148.247 156.454 148.547 157.172 148.531 158.11C148.51 159.295 148.013 160.194 147.038 160.809C146.064 161.423 144.665 161.715 142.843 161.683ZM142.914 160.414C143.799 160.43 144.533 160.352 145.115 160.179C145.704 160.014 146.145 159.764 146.437 159.431C146.736 159.104 146.889 158.71 146.897 158.247C146.905 157.818 146.813 157.491 146.621 157.266C146.43 157.048 146.146 156.899 145.77 156.821C145.394 156.736 144.932 156.689 144.385 156.68L142.53 156.647C142.048 156.639 141.627 156.707 141.267 156.85C140.906 156.993 140.625 157.21 140.425 157.5C140.231 157.789 140.13 158.152 140.123 158.588C140.113 159.167 140.349 159.611 140.832 159.919C141.315 160.234 142.009 160.399 142.914 160.414ZM143.483 151.868C144.257 151.882 144.843 151.697 145.241 151.313C145.638 150.929 145.843 150.363 145.856 149.615C145.87 148.814 145.682 148.212 145.292 147.808C144.902 147.397 144.32 147.185 143.545 147.172C142.803 147.159 142.227 147.357 141.816 147.766C141.412 148.17 141.203 148.768 141.189 149.562C141.176 150.291 141.368 150.855 141.765 151.252C142.161 151.65 142.734 151.855 143.483 151.868ZM152.604 146.343L152.417 157.045L150.796 157.016L150.983 146.315L152.604 146.343ZM151.883 142.326C152.15 142.331 152.376 142.423 152.562 142.602C152.754 142.774 152.847 143.043 152.841 143.407C152.835 143.765 152.732 144.031 152.534 144.203C152.342 144.375 152.113 144.459 151.846 144.455C151.566 144.45 151.333 144.358 151.147 144.179C150.968 144 150.882 143.731 150.888 143.373C150.894 143.009 150.99 142.743 151.175 142.577C151.367 142.405 151.603 142.321 151.883 142.326ZM159.33 156.032C159.597 156.037 159.871 156.019 160.152 155.978C160.433 155.938 160.661 155.886 160.838 155.824L160.816 157.084C160.626 157.165 160.361 157.232 160.022 157.285C159.689 157.338 159.363 157.361 159.044 157.356C158.477 157.346 157.965 157.239 157.506 157.036C157.047 156.826 156.682 156.481 156.411 156.001C156.146 155.521 156.02 154.861 156.035 154.021L156.146 147.675L154.623 147.648L154.636 146.857L156.18 146.249L156.865 143.937L157.842 143.954L157.799 146.434L160.933 146.489L160.911 147.758L157.776 147.703L157.666 154.001C157.655 154.672 157.799 155.175 158.099 155.513C158.406 155.85 158.816 156.023 159.33 156.032ZM164.868 142.064L164.789 146.605C164.784 146.865 164.773 147.129 164.755 147.395C164.738 147.655 164.711 147.896 164.674 148.117L164.782 148.118C165.01 147.745 165.295 147.434 165.638 147.186C165.988 146.932 166.382 146.743 166.82 146.621C167.259 146.492 167.722 146.431 168.21 146.44C169.069 146.455 169.783 146.604 170.351 146.887C170.926 147.171 171.351 147.602 171.628 148.179C171.911 148.757 172.044 149.502 172.028 150.413L171.906 157.385L170.305 157.357L170.425 150.493C170.44 149.601 170.247 148.93 169.845 148.48C169.449 148.031 168.831 147.798 167.991 147.784C167.197 147.77 166.56 147.912 166.079 148.209C165.605 148.501 165.259 148.937 165.041 149.52C164.829 150.102 164.715 150.816 164.7 151.663L164.603 157.257L162.982 157.229L163.247 142.036L164.868 142.064ZM184.269 146.896L184.082 157.597L182.754 157.574L182.546 156.066L182.458 156.065C182.231 156.432 181.939 156.74 181.583 156.987C181.227 157.235 180.826 157.417 180.382 157.533C179.943 157.655 179.477 157.712 178.982 157.704C178.136 157.689 177.429 157.54 176.861 157.256C176.293 156.973 175.867 156.542 175.584 155.964C175.308 155.387 175.177 154.649 175.193 153.75L175.315 146.74L176.956 146.768L176.835 153.662C176.82 154.554 177.01 155.224 177.406 155.674C177.802 156.117 178.413 156.346 179.24 156.36C180.034 156.374 180.668 156.236 181.142 155.944C181.622 155.653 181.972 155.22 182.19 154.644C182.409 154.062 182.525 153.348 182.54 152.501L182.638 146.867L184.269 146.896ZM189.396 142.492L189.329 146.291C189.322 146.727 189.301 147.15 189.268 147.559C189.241 147.969 189.22 148.288 189.203 148.515L189.29 148.517C189.592 148.04 190.022 147.641 190.581 147.319C191.14 146.996 191.849 146.843 192.709 146.858C194.049 146.881 195.109 147.365 195.887 148.31C196.671 149.248 197.048 150.632 197.016 152.461C196.995 153.665 196.795 154.678 196.416 155.498C196.037 156.318 195.512 156.934 194.84 157.346C194.169 157.757 193.381 157.955 192.476 157.939C191.63 157.924 190.936 157.756 190.395 157.434C189.86 157.106 189.45 156.711 189.165 156.25L189.038 156.248L188.681 157.678L187.51 157.657L187.775 142.464L189.396 142.492ZM192.421 148.21C191.647 148.197 191.029 148.339 190.568 148.637C190.107 148.928 189.77 149.378 189.558 149.987C189.352 150.589 189.241 151.355 189.225 152.286L189.223 152.374C189.2 153.721 189.406 154.757 189.843 155.481C190.28 156.198 191.09 156.567 192.275 156.588C193.271 156.605 194.023 156.254 194.53 155.533C195.044 154.813 195.313 153.776 195.336 152.422C195.361 151.042 195.131 149.999 194.649 149.294C194.173 148.589 193.43 148.228 192.421 148.21Z" fill="black"/>
<path d="M30.9277 52.6875L27.9004 52.6875L27.9004 40.9297L24.0234 40.9297L24.0234 38.4102L34.8047 38.4102L34.8047 40.9297L30.9277 40.9297L30.9277 52.6875ZM48.7012 52.6875L45.6836 52.6875L45.6836 46.5254L40.0293 46.5254L40.0293 52.6875L37.002 52.6875L37.002 38.4102L40.0293 38.4102L40.0293 44.0059L45.6836 44.0059L45.6836 38.4102L48.7012 38.4102L48.7012 52.6875ZM52.3145 52.6875L52.3145 38.4102L55.3418 38.4102L55.3418 52.6875L52.3145 52.6875ZM67.3633 48.7227C67.3633 49.569 67.1582 50.3047 66.748 50.9297C66.3379 51.5547 65.7389 52.0365 64.9512 52.375C64.1699 52.7135 63.2194 52.8828 62.0996 52.8828C61.6048 52.8828 61.1198 52.8503 60.6445 52.7852C60.1758 52.7201 59.7233 52.6257 59.2871 52.502C58.8574 52.3717 58.4473 52.2122 58.0566 52.0234L58.0566 49.2109C58.7337 49.5104 59.4368 49.7806 60.166 50.0215C60.8952 50.2624 61.6178 50.3828 62.334 50.3828C62.8288 50.3828 63.2259 50.3177 63.5254 50.1875C63.8314 50.0573 64.0527 49.8783 64.1895 49.6504C64.3262 49.4225 64.3945 49.1621 64.3945 48.8691C64.3945 48.5111 64.2741 48.2051 64.0332 47.9512C63.7923 47.6973 63.4603 47.4596 63.0371 47.2383C62.6204 47.0169 62.1484 46.7793 61.6211 46.5254C61.2891 46.3691 60.9277 46.1803 60.5371 45.959C60.1465 45.7311 59.7754 45.4544 59.4238 45.1289C59.0723 44.8034 58.7826 44.4095 58.5547 43.9473C58.3333 43.4785 58.2227 42.9186 58.2227 42.2676C58.2227 41.4147 58.418 40.6855 58.8086 40.0801C59.1992 39.4746 59.7559 39.0124 60.4785 38.6934C61.2077 38.3678 62.0671 38.2051 63.0566 38.2051C63.7988 38.2051 64.5052 38.293 65.1758 38.4687C65.8529 38.638 66.5592 38.8854 67.2949 39.2109L66.3184 41.5645C65.6608 41.2975 65.0716 41.0924 64.5508 40.9492C64.0299 40.7995 63.4993 40.7246 62.959 40.7246C62.5814 40.7246 62.2591 40.7865 61.9922 40.9102C61.7253 41.0273 61.5234 41.1966 61.3867 41.418C61.25 41.6328 61.1816 41.8835 61.1816 42.1699C61.1816 42.5085 61.2793 42.7949 61.4746 43.0293C61.6764 43.2572 61.9759 43.4785 62.373 43.6934C62.7767 43.9082 63.278 44.1589 63.877 44.4453C64.6061 44.7904 65.2279 45.1517 65.7422 45.5293C66.263 45.9004 66.6634 46.3398 66.9434 46.8477C67.2233 47.349 67.3633 47.974 67.3633 48.7227ZM79.707 38.4102C81.5495 38.4102 82.8939 38.8073 83.7402 39.6016C84.5866 40.3893 85.0098 41.4766 85.0098 42.8633C85.0098 43.4883 84.9154 44.0872 84.7266 44.6602C84.5378 45.2266 84.2285 45.7311 83.7988 46.1738C83.3757 46.6165 82.8092 46.9681 82.0996 47.2285C81.39 47.4824 80.5143 47.6094 79.4727 47.6094L78.1738 47.6094L78.1738 52.6875L75.1465 52.6875L75.1465 38.4102L79.707 38.4102ZM79.5508 40.8906L78.1738 40.8906L78.1738 45.1289L79.1699 45.1289C79.7363 45.1289 80.2279 45.054 80.6445 44.9043C81.0612 44.7546 81.3835 44.5202 81.6113 44.2012C81.8392 43.8822 81.9531 43.472 81.9531 42.9707C81.9531 42.2676 81.7578 41.7467 81.3672 41.4082C80.9766 41.0632 80.3711 40.8906 79.5508 40.8906ZM91.8652 38.4102C93.1608 38.4102 94.2285 38.5664 95.0684 38.8789C95.9147 39.1914 96.543 39.6634 96.9531 40.2949C97.3633 40.9264 97.5684 41.724 97.5684 42.6875C97.5684 43.3385 97.4447 43.9082 97.1973 44.3965C96.9499 44.8848 96.6243 45.2982 96.2207 45.6367C95.8171 45.9753 95.3809 46.252 94.9121 46.4668L99.1113 52.6875L95.752 52.6875L92.3438 47.209L90.7324 47.209L90.7324 52.6875L87.7051 52.6875L87.7051 38.4102L91.8652 38.4102ZM91.6504 40.8906L90.7324 40.8906L90.7324 44.748L91.709 44.748C92.7116 44.748 93.4277 44.582 93.8574 44.25C94.2936 43.9115 94.5117 43.4167 94.5117 42.7656C94.5117 42.0885 94.2773 41.6068 93.8086 41.3203C93.3464 41.0339 92.627 40.8906 91.6504 40.8906ZM113.867 45.5293C113.867 46.6296 113.73 47.6322 113.457 48.5371C113.184 49.4355 112.767 50.2103 112.207 50.8613C111.654 51.5124 110.951 52.0137 110.098 52.3652C109.245 52.7103 108.236 52.8828 107.07 52.8828C105.905 52.8828 104.896 52.7103 104.043 52.3652C103.19 52.0137 102.484 51.5124 101.924 50.8613C101.37 50.2103 100.957 49.4323 100.684 48.5273C100.41 47.6224 100.273 46.6165 100.273 45.5098C100.273 44.0319 100.514 42.7461 100.996 41.6523C101.484 40.5521 102.233 39.6992 103.242 39.0937C104.251 38.4883 105.534 38.1855 107.09 38.1855C108.639 38.1855 109.912 38.4883 110.908 39.0937C111.911 39.6992 112.653 40.5521 113.135 41.6523C113.623 42.7526 113.867 44.0449 113.867 45.5293ZM103.447 45.5293C103.447 46.5254 103.571 47.3848 103.818 48.1074C104.072 48.8236 104.466 49.377 105 49.7676C105.534 50.1517 106.224 50.3437 107.07 50.3437C107.93 50.3437 108.626 50.1517 109.16 49.7676C109.694 49.377 110.081 48.8236 110.322 48.1074C110.57 47.3848 110.693 46.5254 110.693 45.5293C110.693 44.0319 110.413 42.8535 109.854 41.9941C109.294 41.1348 108.372 40.7051 107.09 40.7051C106.237 40.7051 105.54 40.9004 105 41.291C104.466 41.6751 104.072 42.2285 103.818 42.9512C103.571 43.6673 103.447 44.5267 103.447 45.5293ZM115.332 56.8867C114.941 56.8867 114.6 56.8639 114.307 56.8184C114.007 56.7793 113.753 56.7305 113.545 56.6719L113.545 54.1523C113.753 54.1979 113.978 54.2402 114.219 54.2793C114.453 54.3249 114.704 54.3477 114.971 54.3477C115.322 54.3477 115.638 54.2793 115.918 54.1426C116.198 54.0124 116.419 53.7617 116.582 53.3906C116.745 53.0195 116.826 52.4857 116.826 51.7891L116.826 38.4102L119.854 38.4102L119.854 51.7695C119.854 52.9935 119.661 53.9798 119.277 54.7285C118.9 55.4837 118.369 56.0306 117.686 56.3691C117.008 56.7142 116.224 56.8867 115.332 56.8867ZM131.67 52.6875L123.447 52.6875L123.447 38.4102L131.67 38.4102L131.67 40.8906L126.475 40.8906L126.475 44.0254L131.309 44.0254L131.309 46.5059L126.475 46.5059L126.475 50.1875L131.67 50.1875L131.67 52.6875ZM140.723 40.7246C140.143 40.7246 139.629 40.8385 139.18 41.0664C138.737 41.2878 138.363 41.61 138.057 42.0332C137.757 42.4564 137.529 42.9674 137.373 43.5664C137.217 44.1654 137.139 44.8392 137.139 45.5879C137.139 46.597 137.262 47.4596 137.51 48.1758C137.764 48.8854 138.154 49.429 138.682 49.8066C139.209 50.1777 139.889 50.3633 140.723 50.3633C141.302 50.3633 141.882 50.2982 142.461 50.168C143.047 50.0378 143.682 49.8522 144.365 49.6113L144.365 52.1504C143.734 52.4108 143.112 52.5964 142.5 52.707C141.888 52.8242 141.201 52.8828 140.439 52.8828C138.968 52.8828 137.757 52.5801 136.807 51.9746C135.863 51.3626 135.163 50.5098 134.707 49.416C134.251 48.3158 134.023 47.0332 134.023 45.5684C134.023 44.4876 134.17 43.498 134.463 42.5996C134.756 41.7012 135.186 40.9232 135.752 40.2656C136.318 39.6081 137.018 39.1003 137.852 38.7422C138.685 38.3841 139.642 38.2051 140.723 38.2051C141.432 38.2051 142.142 38.2962 142.852 38.4785C143.568 38.6543 144.251 38.8984 144.902 39.2109L143.926 41.6719C143.392 41.418 142.855 41.1966 142.314 41.0078C141.774 40.819 141.243 40.7246 140.723 40.7246ZM152.92 52.6875L149.893 52.6875L149.893 40.9297L146.016 40.9297L146.016 38.4102L156.797 38.4102L156.797 40.9297L152.92 40.9297L152.92 52.6875ZM181.729 38.4102L178.096 52.6875L174.648 52.6875L172.715 45.1875C172.676 45.0443 172.624 44.8262 172.559 44.5332C172.493 44.2402 172.425 43.9212 172.354 43.5762C172.282 43.2246 172.217 42.8958 172.158 42.5898C172.106 42.2773 172.07 42.0299 172.051 41.8477C172.031 42.0299 171.992 42.2741 171.934 42.5801C171.882 42.8861 171.82 43.2116 171.748 43.5566C171.683 43.9017 171.618 44.224 171.553 44.5234C171.488 44.8229 171.436 45.0508 171.396 45.207L169.473 52.6875L166.035 52.6875L162.393 38.4102L165.371 38.4102L167.197 46.2031C167.249 46.4375 167.308 46.7174 167.373 47.043C167.445 47.3685 167.513 47.7103 167.578 48.0684C167.65 48.4199 167.712 48.7617 167.764 49.0937C167.822 49.4193 167.865 49.7025 167.891 49.9434C167.923 49.696 167.965 49.4095 168.018 49.084C168.07 48.752 168.125 48.4167 168.184 48.0781C168.249 47.7331 168.314 47.4141 168.379 47.1211C168.444 46.8281 168.503 46.5905 168.555 46.4082L170.635 38.4102L173.496 38.4102L175.576 46.4082C175.622 46.584 175.674 46.8216 175.732 47.1211C175.798 47.4141 175.863 47.7331 175.928 48.0781C175.993 48.4232 176.051 48.7617 176.104 49.0937C176.162 49.4193 176.204 49.7025 176.23 49.9434C176.276 49.6178 176.338 49.224 176.416 48.7617C176.501 48.293 176.589 47.8275 176.68 47.3652C176.777 46.903 176.862 46.5156 176.934 46.2031L178.75 38.4102L181.729 38.4102ZM192.266 52.6875L191.23 49.2891L186.025 49.2891L184.99 52.6875L181.729 52.6875L186.768 38.3516L190.469 38.3516L195.527 52.6875L192.266 52.6875ZM190.508 46.75L189.473 43.4297C189.408 43.2083 189.32 42.9251 189.209 42.5801C189.105 42.2285 188.997 41.8737 188.887 41.5156C188.783 41.151 188.698 40.8353 188.633 40.5684C188.568 40.8353 188.477 41.1673 188.359 41.5645C188.249 41.9551 188.141 42.3262 188.037 42.6777C187.933 43.0293 187.858 43.2799 187.813 43.4297L186.787 46.75L190.508 46.75ZM205.762 48.7227C205.762 49.569 205.557 50.3047 205.146 50.9297C204.736 51.5547 204.137 52.0365 203.35 52.375C202.568 52.7135 201.618 52.8828 200.498 52.8828C200.003 52.8828 199.518 52.8503 199.043 52.7852C198.574 52.7201 198.122 52.6257 197.686 52.502C197.256 52.3717 196.846 52.2122 196.455 52.0234L196.455 49.2109C197.132 49.5104 197.835 49.7806 198.564 50.0215C199.294 50.2624 200.016 50.3828 200.732 50.3828C201.227 50.3828 201.624 50.3177 201.924 50.1875C202.23 50.0573 202.451 49.8783 202.588 49.6504C202.725 49.4225 202.793 49.1621 202.793 48.8691C202.793 48.5111 202.673 48.2051 202.432 47.9512C202.191 47.6973 201.859 47.4596 201.436 47.2383C201.019 47.0169 200.547 46.7793 200.02 46.5254C199.688 46.3691 199.326 46.1803 198.936 45.959C198.545 45.7311 198.174 45.4544 197.822 45.1289C197.471 44.8034 197.181 44.4095 196.953 43.9473C196.732 43.4785 196.621 42.9186 196.621 42.2676C196.621 41.4147 196.816 40.6855 197.207 40.0801C197.598 39.4746 198.154 39.0124 198.877 38.6934C199.606 38.3678 200.465 38.2051 201.455 38.2051C202.197 38.2051 202.904 38.293 203.574 38.4687C204.251 38.638 204.958 38.8854 205.693 39.2109L204.717 41.5645C204.059 41.2975 203.47 41.0924 202.949 40.9492C202.428 40.7995 201.898 40.7246 201.357 40.7246C200.98 40.7246 200.658 40.7865 200.391 40.9102C200.124 41.0273 199.922 41.1966 199.785 41.418C199.648 41.6328 199.58 41.8835 199.58 42.1699C199.58 42.5085 199.678 42.7949 199.873 43.0293C200.075 43.2572 200.374 43.4785 200.771 43.6934C201.175 43.9082 201.676 44.1589 202.275 44.4453C203.005 44.7904 203.626 45.1517 204.141 45.5293C204.661 45.9004 205.062 46.3398 205.342 46.8477C205.622 47.349 205.762 47.974 205.762 48.7227ZM31.6602 64.4922L31.6602 68.0273C31.6602 68.4375 31.6471 68.8444 31.6211 69.248C31.6016 69.6517 31.5755 69.9642 31.543 70.1855L31.6602 70.1855C31.9466 69.7363 32.3372 69.3555 32.832 69.043C33.3268 68.724 33.9681 68.5645 34.7559 68.5645C35.9798 68.5645 36.9727 69.043 37.7344 70C38.4961 70.957 38.877 72.36 38.877 74.209C38.877 75.4525 38.7012 76.4974 38.3496 77.3437C37.998 78.1836 37.5065 78.8184 36.875 79.248C36.2435 79.6712 35.5111 79.8828 34.6777 79.8828C33.877 79.8828 33.2454 79.7396 32.7832 79.4531C32.321 79.1667 31.9466 78.8444 31.6602 78.4863L31.4551 78.4863L30.957 79.6875L28.6816 79.6875L28.6816 64.4922L31.6602 64.4922ZM33.7988 70.9473C33.278 70.9473 32.8646 71.0547 32.5586 71.2695C32.2526 71.4844 32.028 71.8066 31.8848 72.2363C31.748 72.666 31.6732 73.2096 31.6602 73.8672L31.6602 74.1895C31.6602 75.2507 31.8164 76.0645 32.1289 76.6309C32.4414 77.1908 33.0111 77.4707 33.8379 77.4707C34.4499 77.4707 34.9349 77.1875 35.293 76.6211C35.6576 76.0547 35.8398 75.2376 35.8398 74.1699C35.8398 73.1022 35.6576 72.2982 35.293 71.7578C34.9284 71.2174 34.4303 70.9473 33.7988 70.9473ZM51.3574 68.7695L51.3574 79.6875L49.0723 79.6875L48.6719 78.291L48.5156 78.291C48.2813 78.6621 47.9883 78.9648 47.6367 79.1992C47.2852 79.4336 46.8978 79.6061 46.4746 79.7168C46.0514 79.8275 45.612 79.8828 45.1563 79.8828C44.375 79.8828 43.6947 79.7461 43.1152 79.4727C42.5358 79.1927 42.0833 78.7598 41.7578 78.1738C41.4388 77.5879 41.2793 76.8262 41.2793 75.8887L41.2793 68.7695L44.2578 68.7695L44.2578 75.1465C44.2578 75.9277 44.3978 76.5169 44.6777 76.9141C44.9577 77.3112 45.4036 77.5098 46.0156 77.5098C46.6211 77.5098 47.0964 77.373 47.4414 77.0996C47.7865 76.8197 48.0273 76.4128 48.1641 75.8789C48.3073 75.3385 48.3789 74.681 48.3789 73.9062L48.3789 68.7695L51.3574 68.7695ZM57.4609 68.7695L57.4609 79.6875L54.4824 79.6875L54.4824 68.7695L57.4609 68.7695ZM55.9766 64.4922C56.4193 64.4922 56.8001 64.5964 57.1191 64.8047C57.4382 65.0065 57.5977 65.3874 57.5977 65.9473C57.5977 66.5007 57.4382 66.8848 57.1191 67.0996C56.8001 67.3079 56.4193 67.4121 55.9766 67.4121C55.5273 67.4121 55.1432 67.3079 54.8242 67.0996C54.5117 66.8848 54.3555 66.5007 54.3555 65.9473C54.3555 65.3874 54.5117 65.0065 54.8242 64.8047C55.1432 64.5964 55.5273 64.4922 55.9766 64.4922ZM63.5742 79.6875L60.5957 79.6875L60.5957 64.4922L63.5742 64.4922L63.5742 79.6875ZM71.3086 77.5098C71.6341 77.5098 71.9499 77.4772 72.2559 77.4121C72.5684 77.347 72.8776 77.2656 73.1836 77.168L73.1836 79.3848C72.8646 79.528 72.4674 79.6452 71.9922 79.7363C71.5234 79.834 71.0091 79.8828 70.4492 79.8828C69.7982 79.8828 69.2122 79.7786 68.6914 79.5703C68.1771 79.3555 67.7702 78.9876 67.4707 78.4668C67.1777 77.9395 67.0313 77.207 67.0313 76.2695L67.0313 71.0059L65.6055 71.0059L65.6055 69.7461L67.2461 68.75L68.1055 66.4453L70.0098 66.4453L70.0098 68.7695L73.0664 68.7695L73.0664 71.0059L70.0098 71.0059L70.0098 76.2695C70.0098 76.6862 70.127 76.9987 70.3613 77.207C70.6022 77.4089 70.918 77.5098 71.3086 77.5098ZM83.5742 64.4922L83.5742 68.0273C83.5742 68.4375 83.5612 68.8444 83.5352 69.248C83.5156 69.6517 83.4896 69.9642 83.457 70.1855L83.5742 70.1855C83.8607 69.7363 84.2513 69.3555 84.7461 69.043C85.2409 68.724 85.8822 68.5645 86.6699 68.5645C87.8939 68.5645 88.8867 69.043 89.6484 70C90.4102 70.957 90.791 72.36 90.791 74.209C90.791 75.4525 90.6152 76.4974 90.2637 77.3437C89.9121 78.1836 89.4206 78.8184 88.7891 79.248C88.1576 79.6712 87.4251 79.8828 86.5918 79.8828C85.791 79.8828 85.1595 79.7396 84.6973 79.4531C84.235 79.1667 83.8607 78.8444 83.5742 78.4863L83.3691 78.4863L82.8711 79.6875L80.5957 79.6875L80.5957 64.4922L83.5742 64.4922ZM85.7129 70.9473C85.1921 70.9473 84.7786 71.0547 84.4727 71.2695C84.1667 71.4844 83.9421 71.8066 83.7988 72.2363C83.6621 72.666 83.5872 73.2096 83.5742 73.8672L83.5742 74.1895C83.5742 75.2507 83.7305 76.0645 84.043 76.6309C84.3555 77.1908 84.9251 77.4707 85.752 77.4707C86.3639 77.4707 86.849 77.1875 87.207 76.6211C87.5716 76.0547 87.7539 75.2376 87.7539 74.1699C87.7539 73.1022 87.5716 72.2982 87.207 71.7578C86.8424 71.2174 86.3444 70.9473 85.7129 70.9473ZM91.6895 68.7695L94.9512 68.7695L97.0117 74.9121C97.0768 75.1074 97.1322 75.306 97.1777 75.5078C97.2233 75.7096 97.2624 75.918 97.2949 76.1328C97.3275 76.3477 97.3535 76.5723 97.373 76.8066L97.4316 76.8066C97.4707 76.4551 97.5228 76.1263 97.5879 75.8203C97.6595 75.5143 97.7474 75.2116 97.8516 74.9121L99.873 68.7695L103.066 68.7695L98.4473 81.084C98.1673 81.8392 97.8027 82.4674 97.3535 82.9687C96.9043 83.4766 96.3867 83.8574 95.8008 84.1113C95.2214 84.3652 94.5833 84.4922 93.8867 84.4922C93.5482 84.4922 93.2552 84.4727 93.0078 84.4336C92.7604 84.401 92.5488 84.3652 92.373 84.3262L92.373 81.9629C92.5098 81.9954 92.6823 82.0247 92.8906 82.0508C93.099 82.0768 93.3171 82.0898 93.5449 82.0898C93.9616 82.0898 94.3197 82.002 94.6191 81.8262C94.9186 81.6504 95.1693 81.4128 95.3711 81.1133C95.5729 80.8203 95.7324 80.498 95.8496 80.1465L96.0254 79.6094L91.6895 68.7695ZM114.434 77.5098C114.759 77.5098 115.075 77.4772 115.381 77.4121C115.693 77.347 116.003 77.2656 116.309 77.168L116.309 79.3848C115.99 79.528 115.592 79.6452 115.117 79.7363C114.648 79.834 114.134 79.8828 113.574 79.8828C112.923 79.8828 112.337 79.7786 111.816 79.5703C111.302 79.3555 110.895 78.9876 110.596 78.4668C110.303 77.9395 110.156 77.207 110.156 76.2695L110.156 71.0059L108.73 71.0059L108.73 69.7461L110.371 68.75L111.23 66.4453L113.135 66.4453L113.135 68.7695L116.191 68.7695L116.191 71.0059L113.135 71.0059L113.135 76.2695C113.135 76.6862 113.252 76.9987 113.486 77.207C113.727 77.4089 114.043 77.5098 114.434 77.5098ZM123.027 68.5645C124.036 68.5645 124.906 68.7598 125.635 69.1504C126.364 69.5345 126.927 70.0944 127.324 70.8301C127.721 71.5658 127.92 72.4642 127.92 73.5254L127.92 74.9707L120.879 74.9707C120.911 75.8105 121.162 76.4714 121.631 76.9531C122.106 77.4284 122.764 77.666 123.604 77.666C124.3 77.666 124.938 77.5944 125.518 77.4512C126.097 77.3079 126.693 77.0931 127.305 76.8066L127.305 79.1113C126.764 79.3783 126.198 79.5736 125.605 79.6973C125.02 79.821 124.307 79.8828 123.467 79.8828C122.373 79.8828 121.403 79.681 120.557 79.2773C119.717 78.8737 119.056 78.2585 118.574 77.4316C118.099 76.6048 117.861 75.5632 117.861 74.3066C117.861 73.0306 118.076 71.9694 118.506 71.123C118.942 70.2702 119.548 69.6322 120.322 69.209C121.097 68.7793 121.999 68.5645 123.027 68.5645ZM123.047 70.6836C122.467 70.6836 121.986 70.8691 121.602 71.2402C121.224 71.6113 121.006 72.194 120.947 72.9883L125.127 72.9883C125.12 72.5456 125.039 72.1517 124.883 71.8066C124.733 71.4616 124.505 71.1882 124.199 70.9863C123.9 70.7845 123.516 70.6836 123.047 70.6836ZM143.164 68.5645C144.401 68.5645 145.335 68.8835 145.967 69.5215C146.605 70.153 146.924 71.1686 146.924 72.5684L146.924 79.6875L143.936 79.6875L143.936 73.3105C143.936 72.5293 143.802 71.9401 143.535 71.543C143.268 71.1458 142.855 70.9473 142.295 70.9473C141.507 70.9473 140.947 71.2305 140.615 71.7969C140.283 72.3568 140.117 73.1608 140.117 74.209L140.117 79.6875L137.139 79.6875L137.139 73.3105C137.139 72.7897 137.08 72.3535 136.963 72.002C136.846 71.6504 136.667 71.3867 136.426 71.2109C136.185 71.0352 135.876 70.9473 135.498 70.9473C134.945 70.9473 134.508 71.0872 134.189 71.3672C133.877 71.6406 133.652 72.0475 133.516 72.5879C133.385 73.1217 133.32 73.776 133.32 74.5508L133.32 79.6875L130.342 79.6875L130.342 68.7695L132.617 68.7695L133.018 70.166L133.184 70.166C133.405 69.7884 133.682 69.4824 134.014 69.248C134.352 69.0137 134.723 68.8411 135.127 68.7305C135.531 68.6198 135.941 68.5645 136.357 68.5645C137.158 68.5645 137.835 68.6947 138.389 68.9551C138.949 69.2155 139.378 69.6191 139.678 70.166L139.941 70.166C140.267 69.6061 140.726 69.1992 141.318 68.9453C141.917 68.6914 142.533 68.5645 143.164 68.5645ZM152.969 68.7695L152.969 79.6875L149.99 79.6875L149.99 68.7695L152.969 68.7695ZM151.484 64.4922C151.927 64.4922 152.308 64.5964 152.627 64.8047C152.946 65.0065 153.105 65.3874 153.105 65.9473C153.105 66.5007 152.946 66.8848 152.627 67.0996C152.308 67.3079 151.927 67.4121 151.484 67.4121C151.035 67.4121 150.651 67.3079 150.332 67.0996C150.02 66.8848 149.863 66.5007 149.863 65.9473C149.863 65.3874 150.02 65.0065 150.332 64.8047C150.651 64.5964 151.035 64.4922 151.484 64.4922ZM159.561 79.8828C158.343 79.8828 157.35 79.4076 156.582 78.457C155.82 77.5 155.439 76.097 155.439 74.248C155.439 72.3796 155.827 70.9668 156.602 70.0098C157.376 69.0462 158.389 68.5645 159.639 68.5645C160.16 68.5645 160.618 68.6361 161.016 68.7793C161.413 68.9225 161.755 69.1146 162.041 69.3555C162.334 69.5964 162.581 69.8665 162.783 70.166L162.881 70.166C162.842 69.9577 162.793 69.6517 162.734 69.248C162.682 68.8379 162.656 68.418 162.656 67.9883L162.656 64.4922L165.645 64.4922L165.645 79.6875L163.359 79.6875L162.783 78.2715L162.656 78.2715C162.467 78.571 162.23 78.8444 161.943 79.0918C161.663 79.3327 161.328 79.5247 160.938 79.668C160.547 79.8112 160.088 79.8828 159.561 79.8828ZM160.605 77.5098C161.419 77.5098 161.992 77.2689 162.324 76.7871C162.663 76.2988 162.842 75.5664 162.861 74.5898L162.861 74.2676C162.861 73.2064 162.699 72.3958 162.373 71.8359C162.048 71.2695 161.442 70.9863 160.557 70.9863C159.899 70.9863 159.385 71.2695 159.014 71.8359C158.643 72.4023 158.457 73.2194 158.457 74.2871C158.457 75.3548 158.643 76.1589 159.014 76.6992C159.391 77.2396 159.922 77.5098 160.605 77.5098ZM173.232 68.5449C174.697 68.5449 175.82 68.8639 176.602 69.502C177.383 70.14 177.773 71.11 177.773 72.4121L177.773 79.6875L175.693 79.6875L175.117 78.2031L175.039 78.2031C174.727 78.5937 174.408 78.9128 174.082 79.1602C173.757 79.4076 173.382 79.5898 172.959 79.707C172.536 79.8242 172.021 79.8828 171.416 79.8828C170.771 79.8828 170.192 79.7591 169.678 79.5117C169.17 79.2643 168.77 78.8867 168.477 78.3789C168.184 77.8646 168.037 77.2135 168.037 76.4258C168.037 75.2669 168.444 74.4141 169.258 73.8672C170.072 73.3138 171.292 73.0078 172.92 72.9492L174.814 72.8906L174.814 72.4121C174.814 71.8392 174.665 71.4193 174.365 71.1523C174.066 70.8854 173.649 70.752 173.115 70.752C172.588 70.752 172.07 70.8268 171.563 70.9766C171.055 71.1263 170.547 71.3151 170.039 71.543L169.053 69.5312C169.632 69.2253 170.28 68.9844 170.996 68.8086C171.719 68.6328 172.464 68.5449 173.232 68.5449ZM174.814 74.6289L173.662 74.668C172.699 74.694 172.028 74.8665 171.65 75.1855C171.279 75.5046 171.094 75.9245 171.094 76.4453C171.094 76.901 171.227 77.2266 171.494 77.4219C171.761 77.6107 172.109 77.7051 172.539 77.7051C173.177 77.7051 173.714 77.5163 174.15 77.1387C174.593 76.7611 174.814 76.224 174.814 75.5273L174.814 74.6289ZM179.287 68.7695L182.549 68.7695L184.609 74.9121C184.674 75.1074 184.73 75.306 184.775 75.5078C184.821 75.7096 184.86 75.918 184.893 76.1328C184.925 76.3477 184.951 76.5723 184.971 76.8066L185.029 76.8066C185.068 76.4551 185.12 76.1263 185.186 75.8203C185.257 75.5143 185.345 75.2116 185.449 74.9121L187.471 68.7695L190.664 68.7695L186.045 81.084C185.765 81.8392 185.4 82.4674 184.951 82.9687C184.502 83.4766 183.984 83.8574 183.398 84.1113C182.819 84.3652 182.181 84.4922 181.484 84.4922C181.146 84.4922 180.853 84.4727 180.605 84.4336C180.358 84.401 180.146 84.3652 179.971 84.3262L179.971 81.9629C180.107 81.9954 180.28 82.0247 180.488 82.0508C180.697 82.0768 180.915 82.0898 181.143 82.0898C181.559 82.0898 181.917 82.002 182.217 81.8262C182.516 81.6504 182.767 81.4128 182.969 81.1133C183.171 80.8203 183.33 80.498 183.447 80.1465L183.623 79.6094L179.287 68.7695ZM202.158 74.209C202.158 75.1204 202.035 75.9277 201.787 76.6309C201.546 77.334 201.191 77.9297 200.723 78.418C200.26 78.8997 199.701 79.2643 199.043 79.5117C198.392 79.7591 197.656 79.8828 196.836 79.8828C196.068 79.8828 195.361 79.7591 194.717 79.5117C194.079 79.2643 193.522 78.8997 193.047 78.418C192.578 77.9297 192.214 77.334 191.953 76.6309C191.699 75.9277 191.572 75.1204 191.572 74.209C191.572 72.998 191.787 71.9727 192.217 71.1328C192.646 70.293 193.258 69.6549 194.053 69.2187C194.847 68.7826 195.794 68.5645 196.895 68.5645C197.917 68.5645 198.822 68.7826 199.609 69.2187C200.404 69.6549 201.025 70.293 201.475 71.1328C201.93 71.9727 202.158 72.998 202.158 74.209ZM194.609 74.209C194.609 74.9251 194.688 75.5273 194.844 76.0156C195 76.5039 195.244 76.8717 195.576 77.1191C195.908 77.3665 196.341 77.4902 196.875 77.4902C197.402 77.4902 197.829 77.3665 198.154 77.1191C198.486 76.8717 198.727 76.5039 198.877 76.0156C199.033 75.5273 199.111 74.9251 199.111 74.209C199.111 73.4863 199.033 72.8874 198.877 72.4121C198.727 71.9303 198.486 71.569 198.154 71.3281C197.822 71.0872 197.389 70.9668 196.855 70.9668C196.068 70.9668 195.495 71.237 195.137 71.7773C194.785 72.3177 194.609 73.1283 194.609 74.209ZM84.6387 98.0059L82.0605 98.0059L82.0605 106.687L79.082 106.687L79.082 98.0059L77.4414 98.0059L77.4414 96.5703L79.082 95.7695L79.082 94.9687C79.082 94.0378 79.2383 93.3151 79.5508 92.8008C79.8698 92.2799 80.3158 91.9154 80.8887 91.707C81.4681 91.4922 82.1517 91.3848 82.9395 91.3848C83.5189 91.3848 84.0462 91.4336 84.5215 91.5312C84.9967 91.6224 85.3841 91.7266 85.6836 91.8437L84.9219 94.0312C84.694 93.9596 84.4466 93.8945 84.1797 93.8359C83.9128 93.7773 83.6068 93.748 83.2617 93.748C82.8451 93.748 82.5391 93.875 82.3438 94.1289C82.1549 94.3763 82.0605 94.6953 82.0605 95.0859L82.0605 95.7695L84.6387 95.7695L84.6387 98.0059ZM90.8301 95.5449C92.2949 95.5449 93.418 95.8639 94.1992 96.502C94.9805 97.14 95.3711 98.11 95.3711 99.4121L95.3711 106.687L93.291 106.687L92.7148 105.203L92.6367 105.203C92.3242 105.594 92.0052 105.913 91.6797 106.16C91.3542 106.408 90.9798 106.59 90.5566 106.707C90.1335 106.824 89.6191 106.883 89.0137 106.883C88.3691 106.883 87.7897 106.759 87.2754 106.512C86.7676 106.264 86.3672 105.887 86.0742 105.379C85.7813 104.865 85.6348 104.214 85.6348 103.426C85.6348 102.267 86.0417 101.414 86.8555 100.867C87.6693 100.314 88.89 100.008 90.5176 99.9492L92.4121 99.8906L92.4121 99.4121C92.4121 98.8392 92.2624 98.4193 91.9629 98.1523C91.6634 97.8854 91.2467 97.752 90.7129 97.752C90.1855 97.752 89.668 97.8268 89.1602 97.9766C88.6523 98.1263 88.1445 98.3151 87.6367 98.543L86.6504 96.5312C87.2298 96.2253 87.8776 95.9844 88.5938 95.8086C89.3164 95.6328 90.0618 95.5449 90.8301 95.5449ZM92.4121 101.629L91.2598 101.668C90.2962 101.694 89.6257 101.867 89.248 102.186C88.877 102.505 88.6914 102.924 88.6914 103.445C88.6914 103.901 88.8249 104.227 89.0918 104.422C89.3587 104.611 89.707 104.705 90.1367 104.705C90.7747 104.705 91.3118 104.516 91.748 104.139C92.1908 103.761 92.4121 103.224 92.4121 102.527L92.4121 101.629ZM101.426 106.687L98.4473 106.687L98.4473 91.4922L101.426 91.4922L101.426 106.687ZM114.482 101.209C114.482 102.12 114.359 102.928 114.111 103.631C113.87 104.334 113.516 104.93 113.047 105.418C112.585 105.9 112.025 106.264 111.367 106.512C110.716 106.759 109.98 106.883 109.16 106.883C108.392 106.883 107.686 106.759 107.041 106.512C106.403 106.264 105.846 105.9 105.371 105.418C104.902 104.93 104.538 104.334 104.277 103.631C104.023 102.928 103.896 102.12 103.896 101.209C103.896 99.998 104.111 98.9727 104.541 98.1328C104.971 97.293 105.583 96.6549 106.377 96.2187C107.171 95.7826 108.118 95.5645 109.219 95.5645C110.241 95.5645 111.146 95.7826 111.934 96.2187C112.728 96.6549 113.35 97.293 113.799 98.1328C114.255 98.9727 114.482 99.998 114.482 101.209ZM106.934 101.209C106.934 101.925 107.012 102.527 107.168 103.016C107.324 103.504 107.568 103.872 107.9 104.119C108.232 104.367 108.665 104.49 109.199 104.49C109.727 104.49 110.153 104.367 110.479 104.119C110.811 103.872 111.051 103.504 111.201 103.016C111.357 102.527 111.436 101.925 111.436 101.209C111.436 100.486 111.357 99.8874 111.201 99.4121C111.051 98.9303 110.811 98.569 110.479 98.3281C110.146 98.0872 109.714 97.9668 109.18 97.9668C108.392 97.9668 107.819 98.237 107.461 98.7773C107.109 99.3177 106.934 100.128 106.934 101.209ZM129.766 95.5645C131.003 95.5645 131.937 95.8835 132.568 96.5215C133.206 97.153 133.525 98.1686 133.525 99.5684L133.525 106.687L130.537 106.687L130.537 100.311C130.537 99.5293 130.404 98.9401 130.137 98.543C129.87 98.1458 129.456 97.9473 128.896 97.9473C128.109 97.9473 127.549 98.2305 127.217 98.7969C126.885 99.3568 126.719 100.161 126.719 101.209L126.719 106.687L123.74 106.687L123.74 100.311C123.74 99.7897 123.682 99.3535 123.564 99.002C123.447 98.6504 123.268 98.3867 123.027 98.2109C122.786 98.0352 122.477 97.9473 122.1 97.9473C121.546 97.9473 121.11 98.0872 120.791 98.3672C120.479 98.6406 120.254 99.0475 120.117 99.5879C119.987 100.122 119.922 100.776 119.922 101.551L119.922 106.687L116.943 106.687L116.943 95.7695L119.219 95.7695L119.619 97.166L119.785 97.166C120.007 96.7884 120.283 96.4824 120.615 96.248C120.954 96.0137 121.325 95.8411 121.729 95.7305C122.132 95.6198 122.542 95.5645 122.959 95.5645C123.76 95.5645 124.437 95.6947 124.99 95.9551C125.55 96.2155 125.98 96.6191 126.279 97.166L126.543 97.166C126.868 96.6061 127.327 96.1992 127.92 95.9453C128.519 95.6914 129.134 95.5645 129.766 95.5645ZM146.514 101.209C146.514 102.12 146.39 102.928 146.143 103.631C145.902 104.334 145.547 104.93 145.078 105.418C144.616 105.9 144.056 106.264 143.398 106.512C142.747 106.759 142.012 106.883 141.191 106.883C140.423 106.883 139.717 106.759 139.072 106.512C138.434 106.264 137.878 105.9 137.402 105.418C136.934 104.93 136.569 104.334 136.309 103.631C136.055 102.928 135.928 102.12 135.928 101.209C135.928 99.998 136.143 98.9727 136.572 98.1328C137.002 97.293 137.614 96.6549 138.408 96.2187C139.202 95.7826 140.15 95.5645 141.25 95.5645C142.272 95.5645 143.177 95.7826 143.965 96.2187C144.759 96.6549 145.381 97.293 145.83 98.1328C146.286 98.9727 146.514 99.998 146.514 101.209ZM138.965 101.209C138.965 101.925 139.043 102.527 139.199 103.016C139.355 103.504 139.6 103.872 139.932 104.119C140.264 104.367 140.697 104.49 141.23 104.49C141.758 104.49 142.184 104.367 142.51 104.119C142.842 103.872 143.083 103.504 143.232 103.016C143.389 102.527 143.467 101.925 143.467 101.209C143.467 100.486 143.389 99.8874 143.232 99.4121C143.083 98.9303 142.842 98.569 142.51 98.3281C142.178 98.0872 141.745 97.9668 141.211 97.9668C140.423 97.9668 139.85 98.237 139.492 98.7773C139.141 99.3177 138.965 100.128 138.965 101.209ZM151.475 101.951L149.092 101.951L148.594 92.4102L151.973 92.4102L151.475 101.951ZM148.555 105.291C148.555 104.679 148.721 104.249 149.053 104.002C149.391 103.755 149.798 103.631 150.273 103.631C150.736 103.631 151.133 103.755 151.465 104.002C151.803 104.249 151.973 104.679 151.973 105.291C151.973 105.877 151.803 106.3 151.465 106.561C151.133 106.821 150.736 106.951 150.273 106.951C149.798 106.951 149.391 106.821 149.053 106.561C148.721 106.3 148.555 105.877 148.555 105.291Z" fill="black"/>
<defs>
<filter id="filter0_d_446_4" x="0.0664062" y="0.0654297" width="230.148" height="208.401" filterUnits="userSpaceOnUse" color-interpolation-filters="sRGB">
<feFlood flood-opacity="0" result="BackgroundImageFix"/>
<feColorMatrix in="SourceAlpha" type="matrix" values="0 0 0 0 0 0 0 0 0 0 0 0 0 0 0 0 0 0 127 0" result="hardAlpha"/>
<feOffset dx="3.80769" dy="3.80769"/>
<feComposite in2="hardAlpha" operator="out"/>
<feColorMatrix type="matrix" values="0 0 0 0 0.283333 0 0 0 0 0.283333 0 0 0 0 0.283333 0 0 0 1 0"/>
<feBlend mode="normal" in2="BackgroundImageFix" result="effect1_dropShadow_446_4"/>
<feBlend mode="normal" in="SourceGraphic" in2="effect1_dropShadow_446_4" result="shape"/>
</filter>
<filter id="filter1_d_446_4" x="17.1484" y="124.748" width="199.789" height="53.9052" filterUnits="userSpaceOnUse" color-interpolation-filters="sRGB">
<feFlood flood-opacity="0" result="BackgroundImageFix"/>
<feColorMatrix in="SourceAlpha" type="matrix" values="0 0 0 0 0 0 0 0 0 0 0 0 0 0 0 0 0 0 127 0" result="hardAlpha"/>
<feOffset dx="5.72653" dy="5.72653"/>
<feComposite in2="hardAlpha" operator="out"/>
<feColorMatrix type="matrix" values="0 0 0 0 0 0 0 0 0 0 0 0 0 0 0 0 0 0 1 0"/>
<feBlend mode="normal" in2="BackgroundImageFix" result="effect1_dropShadow_446_4"/>
<feBlend mode="normal" in="SourceGraphic" in2="effect1_dropShadow_446_4" result="shape"/>
</filter>
</defs>
</svg>
