<svg width="138" height="51" viewBox="0 0 138 51" fill="none" xmlns="http://www.w3.org/2000/svg">
<path d="M0.419033 23.9963C0.650362 10.7435 11.5814 0.187529 24.8342 0.418858L137.817 2.39098L137.328 30.3867C137.136 41.4307 128.026 50.2274 116.982 50.0346L23.9965 48.4115C10.7437 48.1802 0.187704 37.2492 0.419033 23.9963Z" fill="#FF93F4"/>
<g filter="url(#filter0_d_396_418)">
<path d="M32.5705 23.869C33.5584 24.1102 34.3336 24.6198 34.8962 25.3978C35.4749 26.16 35.7558 27.029 35.7388 28.0049C35.7137 29.4447 35.198 30.5638 34.192 31.3624C33.1859 32.161 31.787 32.5446 29.9952 32.5133L21.6205 32.3672L21.9158 15.4497L30.0266 15.5913C31.7543 15.6215 33.0994 16.029 34.0618 16.8139C35.0403 17.5991 35.5174 18.6876 35.4931 20.0794C35.4758 21.0712 35.1973 21.8985 34.6576 22.5612C34.1343 23.2082 33.4385 23.6441 32.5705 23.869ZM26.5018 22.2508L28.8774 22.2923C30.0613 22.3129 30.6617 21.8353 30.6787 20.8595C30.6963 19.8516 30.1132 19.3374 28.9294 19.3167L26.5537 19.2753L26.5018 22.2508ZM29.1255 28.7056C30.3094 28.7262 30.9099 28.2406 30.9272 27.2488C30.9362 26.7369 30.783 26.3421 30.4678 26.0646C30.1686 25.7873 29.7311 25.6437 29.1552 25.6336L26.4436 25.5863L26.39 28.6578L29.1255 28.7056ZM42.7516 18.0218C41.9198 18.0072 41.2518 17.7715 40.7477 17.3147C40.2599 16.8421 40.0219 16.2618 40.034 15.574C40.0462 14.8701 40.3044 14.2905 40.8084 13.8352C41.3284 13.3802 42.0044 13.16 42.8363 13.1745C43.6521 13.1887 44.304 13.4321 44.7918 13.9047C45.2956 14.3776 45.5414 14.966 45.5291 15.6699C45.5171 16.3578 45.2511 16.9292 44.7311 17.3842C44.2273 17.8235 43.5675 18.036 42.7516 18.0218ZM45.0575 19.3102L44.8225 32.7721L40.1192 32.69L40.3542 19.2281L45.0575 19.3102ZM57.9133 28.992L57.8434 32.9994L55.8037 32.9638C52.3642 32.9038 50.6742 31.17 50.7337 27.7625L50.8112 23.3232L49.1554 23.2943L49.2237 19.3829L50.8794 19.4118L50.9364 16.1483L55.6637 16.2308L55.6067 19.4943L58.0543 19.5371L57.9861 23.4485L55.5384 23.4057L55.4597 27.9171C55.4533 28.285 55.5287 28.5504 55.6858 28.7131C55.859 28.8762 56.1456 28.9612 56.5455 28.9682L57.9133 28.992ZM77.8372 16.4258L77.5419 33.3433L72.8386 33.2612L72.9572 26.4702L67.222 26.3701L67.1035 33.1611L62.4002 33.079L62.6955 16.1615L67.3988 16.2436L67.2878 22.6027L73.0229 22.7028L73.1339 16.3437L77.8372 16.4258ZM96.642 20.2106L96.407 33.6726L91.6797 33.59L91.7132 31.6703C91.3027 32.2713 90.7421 32.7576 90.0315 33.1292C89.3212 33.4849 88.5101 33.6547 87.5982 33.6388C86.0305 33.6115 84.7996 33.0779 83.9056 32.0381C83.0279 30.9826 82.6045 29.567 82.6355 27.7913L82.7721 19.9685L87.4514 20.0502L87.3253 27.2731C87.3119 28.041 87.5012 28.6524 87.8934 29.1073C88.3018 29.5465 88.8419 29.7719 89.5138 29.7837C90.2017 29.7957 90.7494 29.5892 91.1569 29.1642C91.5646 28.7233 91.7752 28.1189 91.7886 27.351L91.9147 20.1281L96.642 20.2106ZM106.389 22.253C106.768 21.6195 107.297 21.1327 107.975 20.7925C108.653 20.4363 109.448 20.2661 110.36 20.282C111.432 20.3007 112.395 20.5976 113.249 21.1726C114.119 21.7479 114.793 22.5597 115.271 23.6082C115.764 24.657 115.999 25.8773 115.975 27.2691C115.951 28.6609 115.673 29.8802 115.143 30.9271C114.629 31.9583 113.927 32.7462 113.037 33.2907C112.164 33.8356 111.191 34.0986 110.119 34.0799C109.207 34.064 108.418 33.8742 107.753 33.5105C107.087 33.1309 106.576 32.6179 106.219 31.9715L106.187 33.8433L101.483 33.7612L101.793 16.0039L106.497 16.086L106.389 22.253ZM111.2 27.1857C111.215 26.3059 110.987 25.6218 110.515 25.1335C110.06 24.6295 109.488 24.3714 108.801 24.3594C108.113 24.3474 107.524 24.5852 107.036 25.0727C106.563 25.5606 106.319 26.2364 106.304 27.1003C106.289 27.9802 106.509 28.6721 106.964 29.1761C107.435 29.6804 108.015 29.9386 108.703 29.9506C109.391 29.9626 109.971 29.7247 110.444 29.2369C110.933 28.7333 111.184 28.0496 111.2 27.1857Z" fill="white"/>
</g>
<defs>
<filter id="filter0_d_396_418" x="21.6172" y="12.8105" width="96.5811" height="23.3691" filterUnits="userSpaceOnUse" color-interpolation-filters="sRGB">
<feFlood flood-opacity="0" result="BackgroundImageFix"/>
<feColorMatrix in="SourceAlpha" type="matrix" values="0 0 0 0 0 0 0 0 0 0 0 0 0 0 0 0 0 0 127 0" result="hardAlpha"/>
<feOffset dx="2" dy="2"/>
<feComposite in2="hardAlpha" operator="out"/>
<feColorMatrix type="matrix" values="0 0 0 0 0 0 0 0 0 0 0 0 0 0 0 0 0 0 0.25 0"/>
<feBlend mode="normal" in2="BackgroundImageFix" result="effect1_dropShadow_396_418"/>
<feBlend mode="normal" in="SourceGraphic" in2="effect1_dropShadow_396_418" result="shape"/>
</filter>
</defs>
</svg>
