<svg width="62" height="60" viewBox="0 0 62 60" fill="none" xmlns="http://www.w3.org/2000/svg">
<path d="M30.907 5.54342C31.1855 4.5535 32.5973 4.57814 32.8411 5.57719L35.8345 17.8421C35.9914 18.4849 36.7181 18.8009 37.2952 18.4772L48.3067 12.3018C49.2036 11.7988 50.1844 12.8145 49.6504 13.6933L43.0945 24.4826C42.7509 25.0481 43.0413 25.7853 43.6782 25.9645L55.8312 29.3842C56.8212 29.6627 56.7965 31.0744 55.7975 31.3183L43.5325 34.3117C42.8897 34.4686 42.5738 35.1953 42.8974 35.7723L49.0728 46.7839C49.5758 47.6808 48.5602 48.6616 47.6813 48.1276L36.892 41.5717C36.3266 41.2281 35.5893 41.5185 35.4101 42.1554L31.9905 54.3084C31.7119 55.2983 30.3002 55.2737 30.0564 54.2747L27.0629 42.0097C26.9061 41.3669 26.1794 41.051 25.6023 41.3746L14.5908 47.55C13.6938 48.053 12.713 47.0374 13.247 46.1585L19.803 35.3692C20.1466 34.8038 19.8561 34.0665 19.2192 33.8873L7.06623 30.4677C6.0763 30.1891 6.10095 28.7774 7.09999 28.5336L19.3649 25.5401C20.0077 25.3833 20.3237 24.6566 20 24.0795L13.8246 13.068C13.3216 12.171 14.3373 11.1902 15.2161 11.7242L26.0054 18.2802C26.5709 18.6238 27.3081 18.3333 27.4873 17.6964L30.907 5.54342Z" fill="#DDFF7D"/>
<path d="M28.4044 4.50601C28.5679 3.88991 29.4475 3.90527 29.5894 4.52669L32.1888 15.91C32.4088 16.8732 33.5353 17.3056 34.3433 16.737L43.8919 10.0169C44.4132 9.65004 45.0772 10.2272 44.7864 10.7945L39.4606 21.1854C39.01 22.0647 39.595 23.1201 40.5794 23.2039L52.2137 24.1937C52.8488 24.2477 52.9865 25.1166 52.3991 25.3643L41.6401 29.9009C40.7298 30.2847 40.4995 31.4693 41.1998 32.1662L49.4759 40.4029C49.9277 40.8525 49.4746 41.6066 48.8655 41.4188L37.7076 37.9782C36.7635 37.6871 35.8256 38.4466 35.9141 39.4306L36.9596 51.06C37.0167 51.6948 36.1848 51.9813 35.8389 51.4459L29.503 41.6381C28.9669 40.8082 27.7603 40.7871 27.1956 41.5978L20.5213 51.1785C20.1569 51.7015 19.3356 51.3862 19.4148 50.7537L20.8655 39.1679C20.9882 38.1876 20.0775 37.3959 19.1238 37.6539L7.85258 40.7029C7.23728 40.8693 6.81076 40.0999 7.27798 39.6663L15.8365 31.7235C16.5607 31.0514 16.3719 29.8596 15.4755 29.4441L4.8814 24.5349C4.30305 24.2669 4.47092 23.4033 5.10755 23.3714L16.7693 22.7882C17.756 22.7389 18.3776 21.7045 17.9579 20.8101L12.9979 10.2396C12.7272 9.66255 13.4109 9.10889 13.919 9.49372L23.2273 16.543C24.0149 17.1395 25.1559 16.7466 25.4094 15.7916L28.4044 4.50601Z" stroke="black" stroke-width="0.779221"/>
</svg>
